<?xml version="1.0" standalone="no"?><!DOCTYPE svg PUBLIC "-//W3C//DTD SVG 1.1//EN" "http://www.w3.org/Graphics/SVG/1.1/DTD/svg11.dtd"><svg t="1633531383358" class="icon" viewBox="0 0 1024 1024" version="1.1" xmlns="http://www.w3.org/2000/svg" p-id="1380" xmlns:xlink="http://www.w3.org/1999/xlink" width="200" height="200"><defs><style type="text/css"></style></defs><path d="M848.649122 61.88217H175.387003c-61.990545 0-112.168207 50.177662-112.168207 112.168207V735.144288c0 61.918295 50.177662 112.204332 112.168207 112.204333h673.262119c61.990545 0 112.168207-50.286037 112.168207-112.204333V174.050377c0-61.990545-50.177662-112.168207-112.168207-112.168207z m56.138291 673.262118c0 30.959148-25.179143 56.066041-56.138291 56.066041H175.387003c-30.959148 0-56.138291-25.106893-56.138291-56.066041V174.050377c0-30.959148 25.179143-56.138291 56.138291-56.138291h673.262119c30.959148 0 56.138291 25.179143 56.138291 56.138291V735.144288z" fill="#231815" p-id="1381"></path><path d="M848.649122 510.663374c0.252875-1.517251 0-308.616101 0-308.616101 0-15.497636-12.535384-28.033021-28.033021-28.033021L455.861709 230.188669c-15.497636 0-28.033021 12.535384-28.033021 28.03302v237.341424c-43.313907-19.83264-104.437451-16.725887-159.672617 13.330135-78.210682 42.519156-114.155084 121.705214-80.342058 176.940379 33.885275 55.235165 133.807098 63.688422 211.981655 21.169266 60.94292-33.090524 87.639314-91.179567 84.171311-140.201228 0.252875-1.589501 0-284.845834 0-284.845833l308.507726-47.50441v204.9734c-43.313907-19.83264-104.437451-16.617512-159.672617 13.330135-78.210682 42.519156-114.155084 121.777464-80.233683 177.048754 33.813025 55.235165 133.698723 63.688422 211.909405 21.169266 61.01517-33.162774 87.639314-91.251817 84.171312-140.309603zM375.0139 662.532985c-49.021661 27.563395-109.494955 23.409017-133.265223-5.707754-23.661892-29.080646-2.420377-73.658929 47.43216-99.632823 49.816411-25.901644 94.394694-25.901644 122.75284-3.395752 35.113526 27.780145 5.852254 84.532562-36.919777 108.736329z m364.826642-56.318916c-48.913286 27.74402-109.422705 23.734142-133.156848-5.238129-23.842517-29.008396-2.745502-73.658929 46.962535-99.741198 49.816411-26.082269 93.130318-24.637268 122.75284-3.829253 38.256403 26.87702 7.911381 83.629436-36.558527 108.80858zM147.353983 903.450787h729.328159c15.569886 0 28.105271 12.535384 28.105271 28.03302 0 15.497636-12.535384 28.033021-28.105271 28.033021H147.353983c-15.461511 0-28.105271-12.535384-28.105271-28.033021 0-15.497636 12.607634-28.033021 28.105271-28.03302z" fill="#231815" p-id="1382"></path></svg>